<svg xmlns="http://www.w3.org/2000/svg" width="233" height="243" viewBox="0 0 233 243"><path d="M180.38 10.12h1.55l3.04.01 1.42.01 2.76.02 1.27.01 2.48.02 1.14.02 4.29.07 1.75.05 3.25.1 1.26.07 2.27.13.78.09 1.34.17.33.1 1.79.71 1.35.7.69.42 2.8 1.84 1.06.96 3.34 3.76 1.66 2.76.56 1.53.95 3.16.21 1.75.24 3.64-.12 2.01-.98 5.57-1.26 3.35-.93 1.52-2.08 2.91-1.35 1.3-2.9 2.49-1.78 1.1-4.9 3.03-50.58.52-8.75.09-5.29.05-2.39.03-4.63.06-2.08.02-4.02.06-1.79.03-3.45.05-1.54.03-2.94.06-1.3.04-2.48.07-1.09.04-2.09.08-.9.04-1.74.09-.75.06-1.43.11-.62.06-2.26.26-.88.17-3.01.75-1.58.57-6.95 2.76-4.29 1.99-1.99 1.09-3.88 2.23-1.81 1.23-3.52 2.52-1.64 1.38-3.21 2.85-1.5 1.56-2.94 3.21-1.39 1.76-2.73 3.62-1.3 1.98-2.57 4.08-1.23 2.22-2.43 5.16-1.38 3.8-.57 2.03-1.06 4.13-.4 2.16-.72 4.35-.22 2.22-.37 4.44-.04 2.21v4.41l.14 2.14.38 4.24.34 2.02.77 3.94.54 1.82 2.52 7.22 2.01 4.61 1.16 2.2 2.42 4.33 1.37 2.05 2.82 4.02 1.56 1.88 3.21 3.69 1.74 1.71 3.57 3.34 1.92 1.53 3.92 2.96 2.08 1.34 4.25 2.57 2.25 1.13 3.38 1.51 2.48.94 1.34.43 5.59 1.6 3.04.62 6.21 1.09 3.2.33 6.4.51h3.12l4.41.06 2.57.1 1.13.1 2.16.21.95.16 1.82.34.82.24 3.04 1.09 1.34.83 2.61 1.87 1.36 1.3 2.38 2.65 1.36 1.92.55 1.02 1.04 2.09.39 1.09.71 2.2.23 1.14.37 2.28.06 1.16.02 2.32-.12 1.16-.32 2.31-.3 1.13-.69 2.26-.49 1.1-2.07 3.75-1.67 2.21-.99.97-2.09 1.85-1.22.81-2.55 1.54-1.47.66-1.83.77-.95.27-1.95.47-1.23.13-1.27.13-.74.04-1.54.07-.9.03-1.88.03h-1.09l-2.3-.01-1.32-.01-4.43-.04-2.44-.04-1.03-.02-1.96-.06-.86-.05-1.68-.11-.81-.08-1.6-.17-.85-.12-1.75-.26-1-.17-2.09-.37-1.25-.23-2.65-.49-1.6-.3-6.87-1.54-4.53-1.26-2.23-.74-4.44-1.55-2.18-.88-4.34-1.84-2.12-1.02-4.22-2.11-2.07-1.15-4.08-2.37-1.99-1.28-3.95-2.62-1.91-1.39-3.78-2.86-1.82-1.51-3.61-3.08-1.73-1.61-3.41-3.29-1.63-1.72-3.21-3.49-1.52-1.81-2.99-3.68-1.41-1.9-2.75-3.85-1.29-1.99-2.5-4.01-1.16-2.06-2.24-4.16-1.01-2.14-1.96-4.3-.87-2.2-2.35-6.05-1.29-3.54-.53-1.6-.97-3.1-.38-1.49-.69-2.93-.26-1.49-.46-3.02-.16-1.63-.27-3.36-.08-1.89-.13-3.95-.02-2.28-.02-2.34v-3.85l.01-1.4.01-3.57.01-2.16.01-.98.03-3.69.04-1.52.07-2.85.07-1.19.14-2.26.11-.98.52-3.62.45-1.81.5-1.85.31-1.04.66-2.18.4-1.3 2.47-7.23 1.83-4.68 1-2.27 2.08-4.5 1.12-2.18 2.31-4.31 1.24-2.08 2.54-4.12 1.35-1.98 2.77-3.91 1.47-1.89 2.98-3.71 1.58-1.78 3.21-3.5 1.68-1.67 3.42-3.3 1.79-1.56 3.62-3.07 1.89-1.46 3.83-2.85 1.99-1.34 4.03-2.63 2.09-1.22 4.23-2.4 2.18-1.11 4.41-2.16 2.28-.99 4.6-1.91 2.37-.87 4.77-1.67 2.46-.75 11-3.32 52.5-.36 6.71-.04 4.23-.03h2.01l3.92-.02h1.85l3.63-.01h1.7Z" fill="#7fff00"/><path d="m162 102.22 46.66.28 4.88 3.02 2.41 1.68 1.38 1.2.61.66 1.17 1.38.54.8 1.05 1.67.51.97 2.79 5.35v56.86l-.01 4.02-.01 1.9-.01 3.74-.01 1.77-.02 3.46-.01 1.64-.05 6.25-.03 2.74-.08 5.2-.04 2.22-.1 4.19-.06 1.73-.13 3.2-.07 1.24-.15 2.25-.09.78-.17 1.33-.1.33-1.68 3.82-1.6 2.5-.98 1.16-2.07 2.23-1.15.94-2.37 1.75-1.23.63-2.81 1.27-1.43.4-2.88.67-1.45.13-2.89.1-1.42-.16-2.82-.44-1.37-.42-2.68-.97-1.27-.67-2.47-1.47-1.13-.91-2.19-1.95-.96-1.15-1.83-2.4-.76-1.36-2.92-5.28-.3-37.25-.29-37.25h-29.27l-6.01-.01-3.67-.01-1.67-.02-3.25-.03-1.47-.02-2.86-.06-1.29-.04-2.51-.08-1.13-.05-2.18-.12-.98-.08-3.64-.33-1.47-.24-2.73-.53-1.11-.36-2.07-.77-.88-.49-1.69-1.05-.78-.65-1.57-1.38-.82-.82-3.24-3.74-1.58-2.46-.54-1.3-.91-2.67-.24-1.5-.35-3.13v-1.82l.2-3.08.34-1.98.27-.96.59-1.88.39-.9.85-1.77.51-.83 1.08-1.64.62-.76 1.31-1.48.73-.68 1.52-1.31.84-.59 1.73-1.13.94-.48 5.42-2.83Z" fill="#f0f"/></svg>